:SAMPLES-PER-SECOND 30
:FULLY-SPECIFIED
:DEGREES
977
root  -40.8012 38.6412 -26.0212 9.39624 74.5426 12.812
RightUpLeg  -22.7619 -6.55914 -0.603418
RightLeg  2.66076 -16.6891 6.12775
RightFoot  -2.97941 -0.620391 8.18183
RightToes  0.000482159 0.542163 -0.142577
Spine  14.3849 -2.42332 -3.97345
Spine1  8.56604 -4.44538 4.77457
HEad  -9.50556 0.856248 0.898633
LeftShoulder1  9.38829 -14.1298 -46.4462
LeftArm  8.93472 -12.2202 -36.7435
LeftForeArm  33.299 -25.5878 -3.72573
LeftHand  -0.25398 0.0180481 5.50724
RightShoulder  5.09204 9.27861 33.8896
RightArm  5.21623 -28.4915 36.1348
RightForeArm  3.8181 24.7518 5.11359
RightHand  -0.829319 2.29707 -12.6938
LeftUpLeg  16.7068 4.52997 -8.73928
LeftLeg  10.8306 12.8136 -3.13693
LeftFoot  -23.8669 0.529607 3.52092
LeftToes  1.06246e-005 4.65854e-005 -8.18502e-006
978
root  -39.177 38.4725 -25.8087 6.75385 77.6775 9.74442
RightUpLeg  -23.5014 -8.59886 2.08387
RightLeg  6.80589 -12.9415 4.53597
RightFoot  -1.19477 -0.394811 4.4988
RightToes  0.000482159 0.542163 -0.142577
Spine  13.8117 -3.0196 -3.33185
Spine1  8.16799 -5.53949 6.68067
HEad  -9.44571 0.338294 0.707598
LeftShoulder1  9.51873 -14.226 -46.8461
LeftArm  9.98235 -11.3134 -37.3464
LeftForeArm  33.2325 -25.3671 -3.68283
LeftHand  -0.25398 0.0180481 5.50724
RightShoulder  5.10785 9.32384 33.8725
RightArm  3.3438 -27.8333 35.1458
RightForeArm  7.15527 21.5347 4.65282
RightHand  -0.468139 0.221881 -9.75771
LeftUpLeg  18.6486 6.10936 -6.50201
LeftLeg  12.274 9.04456 -2.14204
LeftFoot  -23.6589 0.50459 3.36454
LeftToes  1.06246e-005 4.65854e-005 -8.18502e-006
979
root  -37.4574 38.4101 -25.6205 -2.24762 80.185 0.554977
RightUpLeg  -24.2604 -11.2026 5.8784
RightLeg  11.5759 -8.40049 2.1315
RightFoot  1.99214 0.143347 -1.1001
RightToes  0.000482159 0.542163 -0.142577
Spine  13.7065 -3.59319 -1.23723
Spine1  7.56403 -6.28512 8.12833
HEad  -9.64196 -0.0581194 0.141732
LeftShoulder1  9.68792 -14.3392 -47.3881
LeftArm  11.0024 -9.61342 -37.6215
LeftForeArm  33.1618 -24.9281 -3.5947
LeftHand  -0.25398 0.0180481 5.50724
RightShoulder  5.13049 9.29584 34.1342
RightArm  -2.48 -27.0353 33.8011
RightForeArm  11.5442 18.1245 4.94943
RightHand  -0.321656 -0.7966 -8.0902
LeftUpLeg  20.6535 8.75772 -2.94497
LeftLeg  14.2621 4.52762 -0.828896
LeftFoot  -22.5856 0.234027 0.984099
LeftToes  1.06246e-005 4.65854e-005 -8.18502e-006
980
root  -35.6589 38.4016 -25.4905 -14.9694 80.8713 -11.9934
RightUpLeg  -24.7992 -13.677 9.41779
RightLeg  16.701 -4.19054 -0.311461
RightFoot  4.10119 0.701782 -5.01667
RightToes  0.000482159 0.542163 -0.142577
Spine  13.8829 -3.97423 2.12477
Spine1  6.94284 -6.22482 8.12676
HEad  -9.82189 -0.259032 -0.733476
LeftShoulder1  9.78785 -14.4046 -47.7078
LeftArm  11.4429 -6.99429 -37.6379
LeftForeArm  33.2412 -24.5344 -3.50873
LeftHand  -0.25398 0.0180481 5.50724
RightShoulder  5.18456 9.27544 34.6148
RightArm  -9.2169 -25.9365 32.511
RightForeArm  13.1301 14.9651 5.05636
RightHand  -0.373825 -0.454586 -8.70758
LeftUpLeg  21.8238 11.7526 0.802864
LeftLeg  18.155 1.10433 0.37559
LeftFoot  -19.9106 -0.115903 -3.32673
LeftToes  1.06246e-005 4.65854e-005 -8.18502e-006
981
root  -33.8718 38.4604 -25.3595 -23.2723 80.2078 -20.3151
RightUpLeg  -24.3831 -14.0611 10.9741
RightLeg  20.8704 -2.82758 -1.54317
RightFoot  3.48806 0.868109 -6.48418
RightToes  0.000482159 0.542163 -0.142577
Spine  13.6972 -4.07621 5.22041
Spine1  6.41529 -5.67313 7.50451
HEad  -9.32062 -0.150699 -1.57248
LeftShoulder1  9.76683 -14.3631 -47.7157
LeftArm  11.2999 -3.52269 -37.3307
LeftForeArm  33.0954 -24.1968 -3.44654
LeftHand  -0.25398 0.0180481 5.50724
RightShoulder  5.24812 9.37098 34.8056
RightArm  -14.2503 -24.5354 31.9563
RightForeArm  10.0363 12.5721 4.84747
RightHand  -0.549227 0.223577 -11.3679
LeftUpLeg  20.0825 12.9903 3.0849
LeftLeg  25.6421 2.21571 1.60125
LeftFoot  -12.7984 -0.0132219 -5.71111
LeftToes  1.06246e-005 4.65854e-005 -8.18502e-006
982
root  -32.2308 38.5504 -25.1577 -28.0762 79.6785 -25.7
RightUpLeg  -23.4697 -13.7764 11.4873
RightLeg  23.7284 -3.07342 -1.70334
RightFoot  0.639865 0.760642 -7.20671
RightToes  0.000482159 0.542163 -0.142577
Spine  13.0277 -3.95167 7.16984
Spine1  5.97672 -5.13934 7.58962
HEad  -7.92409 -0.290656 -1.9228
LeftShoulder1  9.66639 -14.234 -47.5662
LeftArm  11.0481 0.132947 -36.6745
LeftForeArm  32.5993 -23.6995 -3.39679
LeftHand  -0.25398 0.0180481 5.50724
RightShoulder  5.22713 9.41031 34.5217
RightArm  -16.7812 -23.1474 32.2453
RightForeArm  4.78602 11.9665 4.74251
RightHand  -0.748425 0.719183 -14.313
LeftUpLeg  14.5209 13.7423 4.4931
LeftLeg  36.6027 4.69205 4.12002
LeftFoot  0.0368941 0.399857 -4.26384
LeftToes  1.06246e-005 4.65854e-005 -8.18502e-006
983
root  -30.7955 38.6097 -24.9019 -34.1501 79.6969 -32.4337
RightUpLeg  -22.5096 -14.7696 12.3294
RightLeg  25.6803 -2.72438 -1.67119
RightFoot  -2.63669 0.576551 -7.77344
RightToes  0.000482159 0.542163 -0.142577
Spine  12.377 -3.74479 8.69355
Spine1  5.8207 -4.62737 8.13966
HEad  -6.21969 -1.34217 -1.65752
LeftShoulder1  9.55357 -14.0816 -47.4158
LeftArm  10.6317 3.16948 -35.6153
LeftForeArm  32.4837 -23.0937 -3.38488
LeftHand  -0.25398 0.0180481 5.50724
RightShoulder  5.11073 9.2079 34.255
RightArm  -16.7629 -21.9344 32.781
RightForeArm  0.946852 13.8483 4.91981
RightHand  -0.86577 1.09845 -15.5932
LeftUpLeg  6.83025 13.3001 5.43315
LeftLeg  48.3553 5.76901 7.30228
LeftFoot  12.8185 0.366717 -2.0348
LeftToes  1.06246e-005 4.65854e-005 -8.18502e-006
